<svg width="27" height="27" viewBox="0 0 27 27" fill="none" xmlns="http://www.w3.org/2000/svg">
<g id="arrow-down-svgrepo-com 1">
<path id="Vector" d="M8.64391 17.1292C8.42424 17.3488 8.42424 17.705 8.64391 17.9247C8.86357 18.1443 9.21973 18.1443 9.4394 17.9247L14.345 13.0191L17.1292 15.8033C17.29 15.9642 17.532 16.0123 17.7422 15.9253C17.9523 15.8382 18.0894 15.6331 18.0894 15.4056L18.0894 9.04164C18.0895 8.89246 18.0302 8.74937 17.9247 8.64389C17.8192 8.53841 17.6761 8.47912 17.5269 8.47912L11.1629 8.47912C10.9354 8.47912 10.7303 8.61621 10.6433 8.82638C10.5562 9.0366 10.6043 9.27848 10.7652 9.43939L13.5495 12.2236L8.64391 17.1292Z" fill="#141414"/>
</g>
</svg>
