<svg width="24" height="25" viewBox="0 0 24 25" fill="none" xmlns="http://www.w3.org/2000/svg">
<g id="briefcase-blank 1" clip-path="url(#clip0_9160_36590)">
<path id="Vector" d="M19 4.5686H17.9C17.44 2.2886 15.42 0.568604 13 0.568604H11C8.59 0.568604 6.57 2.2886 6.1 4.5686H5C2.24 4.5686 0 6.8086 0 9.5686V19.5686C0 22.3286 2.24 24.5686 5 24.5686H19C21.76 24.5686 24 22.3286 24 19.5686V9.5686C24 6.8086 21.76 4.5686 19 4.5686ZM11 2.5686H13C14.3 2.5686 15.4 3.4086 15.82 4.5686H8.19C8.6 3.4086 9.7 2.5686 11.01 2.5686H11Z" fill="#141414"/>
</g>
<defs>
<clipPath id="clip0_9160_36590">
<rect width="24" height="24" fill="white" transform="translate(0 0.568604)"/>
</clipPath>
</defs>
</svg>
