<svg width="18" height="19" viewBox="0 0 18 19" fill="none" xmlns="http://www.w3.org/2000/svg">
<g id="bullseye 1" clip-path="url(#clip0_9160_36583)">
<path id="Vector" d="M9 7.5686C8.17275 7.5686 7.5 8.24135 7.5 9.0686C7.5 9.89585 8.17275 10.5686 9 10.5686C9.82725 10.5686 10.5 9.89585 10.5 9.0686C10.5 8.24135 9.82725 7.5686 9 7.5686ZM9 3.8186C6.105 3.8186 3.75 6.1736 3.75 9.0686C3.75 11.9636 6.105 14.3186 9 14.3186C11.895 14.3186 14.25 11.9636 14.25 9.0686C14.25 6.1736 11.895 3.8186 9 3.8186ZM9 12.0686C7.3455 12.0686 6 10.7231 6 9.0686C6 7.4141 7.3455 6.0686 9 6.0686C10.6545 6.0686 12 7.4141 12 9.0686C12 10.7231 10.6545 12.0686 9 12.0686ZM9 0.0686035C4.03725 0.0686035 0 4.10585 0 9.0686C0 14.0314 4.03725 18.0686 9 18.0686C13.9628 18.0686 18 14.0314 18 9.0686C18 4.10585 13.9628 0.0686035 9 0.0686035ZM9 15.8186C5.2785 15.8186 2.25 12.7901 2.25 9.0686C2.25 5.3471 5.2785 2.3186 9 2.3186C12.7215 2.3186 15.75 5.3471 15.75 9.0686C15.75 12.7901 12.7215 15.8186 9 15.8186Z" fill="#141414"/>
</g>
<defs>
<clipPath id="clip0_9160_36583">
<rect width="18" height="18" fill="white" transform="translate(0 0.0686035)"/>
</clipPath>
</defs>
</svg>
