<svg width="24" height="25" viewBox="0 0 24 25" fill="none" xmlns="http://www.w3.org/2000/svg">
<g id="calendar-minus 1" clip-path="url(#clip0_9160_36594)">
<path id="Vector" d="M0 10.5686V19.5686C0 22.3256 2.243 24.5686 5 24.5686H19C21.757 24.5686 24 22.3256 24 19.5686V10.5686H0ZM15 18.5686H9C8.448 18.5686 8 18.1206 8 17.5686C8 17.0166 8.448 16.5686 9 16.5686H15C15.552 16.5686 16 17.0166 16 17.5686C16 18.1206 15.552 18.5686 15 18.5686ZM0 8.5686V7.5686C0 4.8116 2.243 2.5686 5 2.5686H6V1.5686C6 1.0166 6.448 0.568604 7 0.568604C7.552 0.568604 8 1.0166 8 1.5686V2.5686H16V1.5686C16 1.0166 16.448 0.568604 17 0.568604C17.552 0.568604 18 1.0166 18 1.5686V2.5686H19C21.757 2.5686 24 4.8116 24 7.5686V8.5686H0Z" fill="#141414"/>
</g>
<defs>
<clipPath id="clip0_9160_36594">
<rect width="24" height="24" fill="white" transform="translate(0 0.568604)"/>
</clipPath>
</defs>
</svg>
