<svg width="18" height="19" viewBox="0 0 18 19" fill="none" xmlns="http://www.w3.org/2000/svg">
<g id="envelope-dot 1" clip-path="url(#clip0_9160_36654)">
<path id="Vector" d="M15 6.5686C13.3425 6.5686 12 5.2261 12 3.5686C12 1.9111 13.3425 0.568604 15 0.568604C16.6575 0.568604 18 1.9111 18 3.5686C18 5.2261 16.6575 6.5686 15 6.5686ZM9 12.1336C9.5775 12.1336 10.155 11.9161 10.59 11.4736L14.0925 7.9711C12.045 7.5511 10.5 5.7361 10.5 3.5611C10.5 3.3061 10.53 3.0586 10.5675 2.8111H3.75C2.3925 2.8111 1.215 3.5386 0.555 4.6186L7.41 11.4811C7.845 11.9161 8.4225 12.1411 9 12.1411V12.1336ZM16.32 7.8661L11.6475 12.5386C10.92 13.2661 9.9525 13.6336 8.9925 13.6336C8.0325 13.6336 7.0725 13.2661 6.3375 12.5386L0.0375 6.2236C0.03 6.3361 0 6.4486 0 6.5686V14.8186C0 16.8886 1.68 18.5686 3.75 18.5686H14.25C16.32 18.5686 18 16.8886 18 14.8186L17.985 6.9211C17.505 7.3486 16.9425 7.6711 16.32 7.8661Z" fill="#141414"/>
</g>
<defs>
<clipPath id="clip0_9160_36654">
<rect width="18" height="18" fill="white" transform="translate(0 0.568604)"/>
</clipPath>
</defs>
</svg>
