<svg width="24" height="24" viewBox="0 0 24 24" fill="none" xmlns="http://www.w3.org/2000/svg">
<g id="envelope-dot 1" clip-path="url(#clip0_9160_37644)">
<path id="Vector" d="M20 8C17.79 8 16 6.21 16 4C16 1.79 17.79 0 20 0C22.21 0 24 1.79 24 4C24 6.21 22.21 8 20 8ZM12 15.42C12.77 15.42 13.54 15.13 14.12 14.54L18.79 9.87C16.06 9.31 14 6.89 14 3.99C14 3.65 14.04 3.32 14.09 2.99H5C3.19 2.99 1.62 3.96 0.74 5.4L9.88 14.55C10.46 15.13 11.23 15.43 12 15.43V15.42ZM21.76 9.73L15.53 15.96C14.56 16.93 13.27 17.42 11.99 17.42C10.71 17.42 9.43 16.93 8.45 15.96L0.05 7.54C0.04 7.69 0 7.84 0 8V19C0 21.76 2.24 24 5 24H19C21.76 24 24 21.76 24 19L23.98 8.47C23.34 9.04 22.59 9.47 21.76 9.73Z" fill="white"/>
</g>
<defs>
<clipPath id="clip0_9160_37644">
<rect width="24" height="24" fill="white"/>
</clipPath>
</defs>
</svg>
