<svg width="50" height="50" viewBox="0 0 50 50" fill="none" xmlns="http://www.w3.org/2000/svg">
<circle cx="25" cy="25" r="25" fill="#079448"/>
<g clip-path="url(#clip0_9160_37634)">
<path d="M31 25C27.686 25 25 27.686 25 31C25 34.314 27.686 37 31 37C34.314 37 37 34.314 37 31C37 27.686 34.314 25 31 25ZM31.752 33.44L31.748 33.444C31.004 34.188 29.69 34.19 28.925 33.425L26.743 31.157L28.13 29.716L30.346 32.017L33.96 28.314L35.358 29.744L31.751 33.44H31.752ZM16 19C16 15.691 18.691 13 22 13C25.309 13 28 15.691 28 19C28 22.309 25.309 25 22 25C18.691 25 16 22.309 16 19ZM25.721 37H13V32C13 29.239 15.239 27 18 27H24.079C23.397 28.178 23 29.541 23 31C23 33.393 24.056 35.534 25.721 37Z" fill="white"/>
</g>
<defs>
<clipPath id="clip0_9160_37634">
<rect width="24" height="24" fill="white" transform="translate(13 13)"/>
</clipPath>
</defs>
</svg>
