<svg width="70" height="71" viewBox="0 0 70 71" fill="none" xmlns="http://www.w3.org/2000/svg">
<circle cx="35" cy="35.5686" r="24.5" fill="#F87D0C" stroke="white" stroke-dasharray="2 2"/>
<g clip-path="url(#clip0_9160_36862)">
<path d="M42.9999 35.5686C42.3864 35.5685 41.7812 35.7097 41.2311 35.9813C40.681 36.2528 40.2009 36.6475 39.8279 37.1346L39.7579 37.1046C40.0329 36.2526 40.0742 35.3424 39.8773 34.469C39.6804 33.5957 39.2526 32.7912 38.6387 32.1396C38.0247 31.4881 37.247 31.0133 36.3869 30.7649C35.5268 30.5165 34.6157 30.5036 33.7489 30.7276L33.6579 30.5556C34.3843 29.9093 34.8501 29.0203 34.9679 28.0552C35.0858 27.0901 34.8477 26.1152 34.2982 25.3131C33.7487 24.511 32.9255 23.9368 31.983 23.6982C31.0405 23.4595 30.0433 23.5727 29.1783 24.0167C28.3133 24.4606 27.6399 25.2047 27.2842 26.1096C26.9286 27.0145 26.9152 28.018 27.2464 28.9321C27.5777 29.8462 28.231 30.6081 29.0837 31.075C29.9365 31.542 30.9304 31.6819 31.8789 31.4686L31.9519 31.6056C30.952 32.3729 30.2793 33.4901 30.069 34.7329C29.8586 35.9756 30.1262 37.2519 30.8179 38.3056L28.9329 40.0686C28.0809 39.5978 27.0864 39.4539 26.1359 39.6639C25.1854 39.8738 24.344 40.4231 23.7695 41.2089C23.195 41.9947 22.9267 42.9631 23.015 43.9325C23.1033 44.9019 23.5421 45.8059 24.2491 46.475C24.9561 47.1441 25.8828 47.5324 26.8556 47.5672C27.8284 47.602 28.7805 47.2808 29.5335 46.6639C30.2865 46.047 30.7887 45.1767 30.946 44.2161C31.1033 43.2554 30.9049 42.2704 30.3879 41.4456L32.2259 39.7276C33.2354 40.4023 34.4562 40.6861 35.6598 40.5258C36.8633 40.3654 37.9673 39.772 38.7649 38.8566L39.0439 38.9756C38.9229 39.783 39.0518 40.6082 39.4135 41.3402C39.7751 42.0723 40.3521 42.6761 41.0669 43.0706C41.7817 43.4651 42.6002 43.6315 43.4123 43.5473C44.2244 43.463 44.9913 43.1323 45.61 42.5995C46.2287 42.0667 46.6695 41.3573 46.8732 40.5667C47.0769 39.776 47.0338 38.9419 46.7497 38.1765C46.4655 37.4111 45.9539 36.7509 45.2836 36.2847C44.6133 35.8185 43.8164 35.5686 42.9999 35.5686ZM28.9999 27.5686C28.9999 27.173 29.1172 26.7863 29.337 26.4574C29.5568 26.1285 29.8691 25.8722 30.2346 25.7208C30.6 25.5695 31.0021 25.5298 31.3901 25.607C31.7781 25.6842 32.1344 25.8747 32.4141 26.1544C32.6938 26.4341 32.8843 26.7904 32.9615 27.1784C33.0387 27.5664 32.9991 27.9685 32.8477 28.334C32.6963 28.6994 32.44 29.0118 32.1111 29.2315C31.7822 29.4513 31.3955 29.5686 30.9999 29.5686C30.4695 29.5686 29.9608 29.3579 29.5857 28.9828C29.2106 28.6077 28.9999 28.099 28.9999 27.5686ZM26.9999 45.5686C26.6044 45.5686 26.2177 45.4513 25.8888 45.2315C25.5599 45.0118 25.3035 44.6994 25.1522 44.334C25.0008 43.9685 24.9612 43.5664 25.0384 43.1784C25.1155 42.7904 25.306 42.4341 25.5857 42.1544C25.8654 41.8747 26.2218 41.6842 26.6097 41.607C26.9977 41.5298 27.3998 41.5695 27.7653 41.7208C28.1307 41.8722 28.4431 42.1285 28.6629 42.4574C28.8826 42.7863 28.9999 43.173 28.9999 43.5686C28.9999 44.099 28.7892 44.6077 28.4141 44.9828C28.0391 45.3579 27.5304 45.5686 26.9999 45.5686ZM34.9999 38.5686C34.3506 38.5673 33.7192 38.3554 33.2006 37.9647C32.682 37.574 32.3042 37.0256 32.1238 36.4018C31.9435 35.7781 31.9704 35.1126 32.2005 34.5055C32.4306 33.8983 32.8515 33.3822 33.3999 33.0346L33.8069 32.8176C34.2159 32.6397 34.6594 32.5552 35.1051 32.5703C35.5508 32.5854 35.9875 32.6997 36.3835 32.9048C36.7795 33.1099 37.1248 33.4008 37.3942 33.7562C37.6637 34.1116 37.8505 34.5226 37.941 34.9592C38.0316 35.3959 38.0237 35.8473 37.9179 36.2805C37.8121 36.7138 37.611 37.1179 37.3292 37.4637C37.0475 37.8094 36.6923 38.088 36.2893 38.2791C35.8864 38.4702 35.4459 38.5691 34.9999 38.5686ZM42.9999 41.5686C42.6044 41.5686 42.2177 41.4513 41.8888 41.2315C41.5599 41.0118 41.3035 40.6994 41.1522 40.334C41.0008 39.9685 40.9612 39.5664 41.0384 39.1784C41.1155 38.7904 41.306 38.4341 41.5857 38.1544C41.8654 37.8747 42.2218 37.6842 42.6097 37.607C42.9977 37.5298 43.3998 37.5695 43.7653 37.7208C44.1307 37.8722 44.4431 38.1285 44.6629 38.4574C44.8826 38.7863 44.9999 39.173 44.9999 39.5686C44.9999 40.099 44.7892 40.6077 44.4141 40.9828C44.0391 41.3579 43.5304 41.5686 42.9999 41.5686Z" fill="#141414"/>
</g>
<defs>
<clipPath id="clip0_9160_36862">
<rect width="24" height="24" fill="white" transform="translate(23 23.5686)"/>
</clipPath>
</defs>
</svg>
