<svg width="24" height="25" viewBox="0 0 24 25" fill="none" xmlns="http://www.w3.org/2000/svg">
<g id="sparkles 1" clip-path="url(#clip0_9160_37566)">
<path id="Vector" d="M19.5001 24.5685C19.3002 24.5687 19.1049 24.5089 18.9393 24.397C18.7737 24.285 18.6455 24.126 18.5711 23.9405L17.7271 21.8275L15.6111 20.9365C15.4296 20.8563 15.2758 20.7243 15.1691 20.5571C15.0623 20.3898 15.0074 20.1947 15.0111 19.9964C15.0149 19.798 15.0771 19.6051 15.1901 19.442C15.3031 19.2789 15.4617 19.1528 15.6461 19.0795L17.7341 18.2885L18.5711 16.1965C18.6481 16.0137 18.7773 15.8576 18.9425 15.7479C19.1078 15.6382 19.3018 15.5797 19.5001 15.5797C19.6985 15.5797 19.8924 15.6382 20.0577 15.7479C20.2229 15.8576 20.3521 16.0137 20.4291 16.1965L21.2701 18.2965L23.3701 19.1375C23.5533 19.2141 23.7097 19.3432 23.8198 19.5085C23.9298 19.6738 23.9885 19.8679 23.9885 20.0665C23.9885 20.2651 23.9298 20.4592 23.8198 20.6245C23.7097 20.7898 23.5533 20.9189 23.3701 20.9955L21.2701 21.8365L20.4291 23.9365C20.3554 24.1228 20.2274 24.2826 20.0618 24.3953C19.8961 24.508 19.7005 24.5683 19.5001 24.5685ZM10.0001 21.5685C9.56808 21.5737 9.14599 21.4388 8.797 21.1841C8.44801 20.9294 8.19089 20.5685 8.06411 20.1555L6.45011 15.1085L1.38711 13.4145C0.978473 13.2779 0.623828 13.015 0.374398 12.6637C0.124968 12.3123 -0.00633631 11.8908 -0.00054901 11.46C0.0052383 11.0292 0.147817 10.6114 0.406595 10.2669C0.665372 9.92238 1.02695 9.66906 1.43911 9.5435L6.46211 8.0095L8.15411 2.9555C8.27991 2.54037 8.54014 2.17884 8.89386 1.92776C9.24758 1.67668 9.67472 1.5503 10.1081 1.5685C10.5402 1.56908 10.9605 1.70959 11.3061 1.969C11.6516 2.2284 11.9039 2.59275 12.0251 3.0075L13.5571 8.0225L18.5871 9.6325C18.9928 9.76858 19.3455 10.0287 19.5954 10.3761C19.8453 10.7235 19.9798 11.1406 19.9798 11.5685C19.9798 11.9964 19.8453 12.4135 19.5954 12.7609C19.3455 13.1083 18.9928 13.3684 18.5871 13.5045L13.5481 15.1165L11.9361 20.1555C11.8093 20.5685 11.5522 20.9294 11.2032 21.1841C10.8542 21.4388 10.4321 21.5737 10.0001 21.5685ZM20.5001 7.5685C20.2772 7.56849 20.0606 7.494 19.8849 7.35684C19.7092 7.21969 19.5843 7.02775 19.5301 6.8115L19.1731 5.3815L17.7401 4.9965C17.5247 4.93863 17.3349 4.81043 17.2007 4.63226C17.0666 4.4541 16.9958 4.23621 16.9997 4.01323C17.0036 3.79024 17.082 3.57496 17.2223 3.40161C17.3626 3.22826 17.5568 3.10678 17.7741 3.0565L19.1741 2.7315L19.5301 1.3255C19.5843 1.10927 19.7092 0.91735 19.8849 0.780218C20.0607 0.643085 20.2772 0.568604 20.5001 0.568604C20.723 0.568604 20.9396 0.643085 21.1153 0.780218C21.291 0.91735 21.4159 1.10927 21.4701 1.3255L21.8241 2.7435L23.2421 3.0985C23.4583 3.15269 23.6503 3.27758 23.7874 3.45332C23.9245 3.62906 23.999 3.84558 23.999 4.0685C23.999 4.29141 23.9245 4.50794 23.7874 4.68368C23.6503 4.85942 23.4583 4.98431 23.2421 5.0385L21.8241 5.3935L21.4701 6.8115C21.4159 7.02775 21.2911 7.21969 21.1153 7.35684C20.9396 7.494 20.723 7.56849 20.5001 7.5685Z" fill="#141414"/>
</g>
<defs>
<clipPath id="clip0_9160_37566">
<rect width="24" height="24" fill="white" transform="translate(0 0.568604)"/>
</clipPath>
</defs>
</svg>
