<svg width="70" height="71" viewBox="0 0 70 71" fill="none" xmlns="http://www.w3.org/2000/svg">
<circle cx="35" cy="35.5686" r="25" fill="#141414"/>
<g clip-path="url(#clip0_9160_37530)">
<path d="M41 35.5686C37.686 35.5686 35 38.2546 35 41.5686C35 44.8826 37.686 47.5686 41 47.5686C44.314 47.5686 47 44.8826 47 41.5686C47 38.2546 44.314 35.5686 41 35.5686ZM41.752 44.0086L41.748 44.0126C41.004 44.7566 39.69 44.7586 38.925 43.9936L36.743 41.7256L38.13 40.2846L40.346 42.5856L43.96 38.8826L45.358 40.3126L41.751 44.0086H41.752ZM26 29.5686C26 26.2596 28.691 23.5686 32 23.5686C35.309 23.5686 38 26.2596 38 29.5686C38 32.8776 35.309 35.5686 32 35.5686C28.691 35.5686 26 32.8776 26 29.5686ZM35.721 47.5686H23V42.5686C23 39.8076 25.239 37.5686 28 37.5686H34.079C33.397 38.7466 33 40.1096 33 41.5686C33 43.9616 34.056 46.1026 35.721 47.5686Z" fill="white"/>
</g>
<defs>
<clipPath id="clip0_9160_37530">
<rect width="24" height="24" fill="white" transform="translate(23 23.5686)"/>
</clipPath>
</defs>
</svg>
