<svg width="70" height="71" viewBox="0 0 70 71" fill="none" xmlns="http://www.w3.org/2000/svg">
<circle cx="35" cy="35.5686" r="25" fill="#141414"/>
<g clip-path="url(#clip0_9160_37362)">
<path d="M36.892 47.5686C34.932 47.5686 33.055 47.5606 32.401 47.5426C32.1193 47.5337 31.8396 47.4932 31.567 47.4216C30.8686 47.2281 30.2475 46.8226 29.7893 46.2611C29.3312 45.6996 29.0587 45.0096 29.0094 44.2866C28.9602 43.5636 29.1365 42.8431 29.5142 42.2246C29.8919 41.6061 30.4523 41.12 31.118 40.8336C30.939 39.9295 30.9585 38.9974 31.175 38.1016C31.4784 36.8749 32.1613 35.7754 33.1264 34.9597C34.0915 34.144 35.2894 33.6538 36.5495 33.5591C37.8096 33.4643 39.0674 33.7698 40.1436 34.4319C41.2198 35.0941 42.0595 36.0791 42.543 37.2466C42.679 37.5726 43.306 37.7156 43.306 37.7156C44.5621 38.0579 45.6358 38.8754 46.3 39.9952C46.9642 41.1149 47.1668 42.4491 46.865 43.7156C46.6554 44.6164 46.1977 45.4404 45.5437 46.0943C44.8898 46.7483 44.0658 47.206 43.165 47.4156C42.8157 47.4952 42.4592 47.5391 42.101 47.5466C41.229 47.5586 39.013 47.5686 36.892 47.5686ZM31.987 33.3236C32.9765 32.5183 34.1457 31.9637 35.3953 31.7067C36.6449 31.4498 37.9381 31.4981 39.165 31.8476C39.4152 31.9147 39.6764 31.9307 39.9329 31.8946C40.1894 31.8585 40.436 31.7711 40.658 31.6376L43.105 30.2086C43.2145 30.136 43.3087 30.0426 43.3821 29.9337C43.4555 29.8247 43.5068 29.7024 43.5329 29.5737C43.559 29.4449 43.5596 29.3123 43.5345 29.1833C43.5093 29.0544 43.4591 28.9316 43.3865 28.8221C43.3139 28.7126 43.2205 28.6184 43.1116 28.545C43.0026 28.4716 42.8803 28.4203 42.7516 28.3942C42.6228 28.3681 42.4902 28.3675 42.3612 28.3927C42.2323 28.4178 42.1095 28.468 42 28.5406L39.359 30.2906C38.805 30.5716 38.516 29.8486 38.089 29.5736L39.932 26.4276C39.9984 26.3142 40.0418 26.1888 40.0597 26.0587C40.0777 25.9285 40.0698 25.7961 40.0365 25.669C40.0033 25.5418 39.9453 25.4225 39.866 25.3178C39.7866 25.2131 39.6874 25.125 39.574 25.0586C39.4606 24.9922 39.3352 24.9488 39.2051 24.9309C39.0749 24.913 38.9425 24.9208 38.8154 24.9541C38.6882 24.9873 38.5689 25.0453 38.4642 25.1246C38.3595 25.204 38.2714 25.3032 38.205 25.4166L36.384 28.5316C35.9394 28.3492 35.4749 28.2196 35 28.1456V24.5686C35 24.3034 34.8946 24.049 34.7071 23.8615C34.5196 23.674 34.2652 23.5686 34 23.5686C33.7348 23.5686 33.4804 23.674 33.2929 23.8615C33.1054 24.049 33 24.3034 33 24.5686V28.1486C32.5464 28.2224 32.1019 28.3441 31.674 28.5116L29.831 25.4026C29.764 25.2896 29.6755 25.1909 29.5703 25.1121C29.4652 25.0334 29.3456 24.9761 29.2183 24.9435C28.9613 24.8778 28.6887 24.9168 28.4605 25.0521C28.2323 25.1874 28.0671 25.4077 28.0014 25.6648C27.9357 25.9218 27.9747 26.1944 28.11 26.4226L29.944 29.5156C29.5968 29.7946 29.2783 30.1075 28.993 30.4496L25.893 28.6356C25.7796 28.5641 25.6529 28.5162 25.5206 28.4946C25.3883 28.473 25.253 28.4783 25.1227 28.5101C24.9925 28.5419 24.8699 28.5995 24.7624 28.6796C24.6549 28.7597 24.5646 28.8606 24.4968 28.9763C24.4291 29.092 24.3853 29.2202 24.3681 29.3531C24.3509 29.4861 24.3605 29.6212 24.3966 29.7503C24.4326 29.8794 24.4942 30 24.5778 30.1049C24.6614 30.2097 24.7651 30.2967 24.883 30.3606L27.962 32.1686C27.7786 32.6185 27.6488 33.0884 27.575 33.5686H24C23.7348 33.5686 23.4804 33.674 23.2929 33.8615C23.1054 34.049 23 34.3034 23 34.5686C23 34.8338 23.1054 35.0882 23.2929 35.2757C23.4804 35.4632 23.7348 35.5686 24 35.5686H27.576C27.6219 35.8669 27.6887 36.1617 27.776 36.4506C27.7937 36.5612 27.7738 36.6746 27.7194 36.7725C27.665 36.8704 27.5793 36.9472 27.476 36.9906L24.768 38.6026C24.54 38.7383 24.3753 38.9589 24.3101 39.216C24.2448 39.4731 24.2843 39.7457 24.42 39.9736C24.5557 40.2016 24.7763 40.3663 25.0334 40.4315C25.2905 40.4968 25.563 40.4573 25.791 40.3216L28.381 38.8086C28.5864 38.6921 28.7659 38.5351 28.9086 38.347C29.0513 38.1589 29.1542 37.9437 29.211 37.7146C29.6208 35.9823 30.5979 34.4367 31.987 33.3236Z" fill="white"/>
</g>
<defs>
<clipPath id="clip0_9160_37362">
<rect width="24" height="24" fill="white" transform="translate(23 23.5686)"/>
</clipPath>
</defs>
</svg>
